PathFileType	4	(X/Y/Z)	C:\Users\Graham\Documents\MATLAB\MOtoNMS_v2_2\MyData\ElaboratedData\S1\17-05-18\staticElaborations\Static1\Static1\\Static1.trc
DataRate	CameraRate	NumFrames	NumMarkers	Units	OrigDataRate	DataStartFrame
100	100	9	38	mm	100	2
Frame#	Time	V_Sacral			R_ASIS			L_ASIS			R_Knee_Lat			R_Knee_Med			R_Thigh_Upper			R_Thigh_Front			R_Thigh_Rear			L_Knee_Lat			L_Knee_Med			L_Thigh_Upper			L_Thigh_Front			L_Thigh_Rear			R_Ankle_Lat			R_Ankle_Med			R_Shank_Upper			R_Shank_Front			R_Shank_Rear			L_Ankle_Lat			L_Ankle_Med			L_Shank_Upper			L_Shank_Front			L_Shank_Rear			R_Heel			R_MTP1			R_MTP5			L_Heel			L_MTP1			L_MTP5			Clavicle			R_Acromium			L_Acromium			LAJC			RAJC			LHJC			RHJC			LKJC			RKJC		
		X1	Y1	Z1	X2	Y2	Z2	X3	Y3	Z3	X4	Y4	Z4	X5	Y5	Z5	X6	Y6	Z6	X7	Y7	Z7	X8	Y8	Z8	X9	Y9	Z9	X10	Y10	Z10	X11	Y11	Z11	X12	Y12	Z12	X13	Y13	Z13	X14	Y14	Z14	X15	Y15	Z15	X16	Y16	Z16	X17	Y17	Z17	X18	Y18	Z18	X19	Y19	Z19	X20	Y20	Z20	X21	Y21	Z21	X22	Y22	Z22	X23	Y23	Z23	X24	Y24	Z24	X25	Y25	Z25	X26	Y26	Z26	X27	Y27	Z27	X28	Y28	Z28	X29	Y29	Z29	X30	Y30	Z30	X31	Y31	Z31	X32	Y32	Z32	X33	Y33	Z33	X34	Y34	Z34	X35	Y35	Z35	X36	Y36	Z36	X37	Y37	Z37	X38	Y38	Z38	

60	0.590000	-42.733041	1070.889080	4.813684	156.416078	1026.416804	129.704767	158.023615	1034.753414	-102.565199	16.675113	533.587305	174.475084	42.216705	522.745252	66.250832	148.078390	867.319171	171.904618	159.275725	744.007471	137.956394	105.548880	743.489015	197.134321	22.789092	537.738064	-163.385984	30.233970	521.146809	-55.665779	159.967737	862.263021	-143.378480	161.986800	744.443045	-93.718857	124.175497	742.673099	-170.395358	11.833216	111.605618	183.709872	20.761303	107.619822	99.432342	67.728606	329.600233	164.841302	45.379810	217.180018	108.903104	33.954526	213.562594	190.187410	6.118454	99.948757	-174.951691	25.330230	104.873827	-86.456250	61.208059	332.361864	-149.338722	42.173118	214.448433	-104.881198	28.950627	217.291175	-183.473952	-56.120681	53.680030	127.684832	174.711530	62.740060	115.701701	161.900006	56.979509	191.819447	-62.432801	56.984314	-125.385075	174.555973	58.906538	-112.303705	151.710972	51.691411	-197.115104	153.197775	1462.221268	12.826209	108.150363	1498.724323	203.954448	95.957542	1505.677036	-189.199264	15.724342	102.411292	-130.703970	16.297259	109.612720	141.571107	84.247960	966.134905	-73.304870	83.086006	960.109071	94.583563	26.511531	529.442437	-109.525881	29.445909	528.166278	120.362958	
61	0.600000	-42.739015	1070.895093	4.838095	156.426523	1026.420465	129.708696	158.014881	1034.765595	-102.561118	16.684879	533.576451	174.449459	42.214172	522.744987	66.259242	148.082642	867.319173	171.911247	159.278453	744.009152	137.963034	105.559178	743.492600	197.143610	22.781195	537.735862	-163.376854	30.226292	521.144223	-55.655808	159.961610	862.269582	-143.368433	161.987466	744.451038	-93.708554	124.172817	742.677253	-170.381791	11.834171	111.605650	183.711694	20.761403	107.620783	99.433377	67.730455	329.599010	164.847176	45.378176	217.181441	108.905313	33.956789	213.562433	190.191158	6.116454	99.947923	-174.951487	25.330785	104.871200	-86.455390	61.202738	332.360832	-149.333636	42.169440	214.447298	-104.878076	28.947546	217.291187	-183.470587	-56.122352	53.680354	127.685996	174.710939	62.741094	115.702093	161.900297	56.980171	191.820100	-62.432475	56.982856	-125.384412	174.555004	58.906920	-112.304846	151.710855	51.691699	-197.115060	153.240758	1462.224507	12.805323	108.240974	1498.725106	203.953139	95.958970	1505.728995	-189.204933	15.723619	102.409561	-130.703439	16.297787	109.613217	141.572536	84.241451	966.145075	-73.297246	83.093361	960.113082	94.591077	26.503744	529.440043	-109.516331	29.449526	528.160719	120.354351	
62	0.610000	-42.754470	1070.904627	4.862281	156.438559	1026.425717	129.711065	158.003451	1034.780539	-102.557891	16.696440	533.565047	174.418606	42.211105	522.745128	66.267016	148.089033	867.320347	171.915341	159.283714	744.012369	137.967238	105.572445	743.497519	197.152260	22.769075	537.733266	-163.367824	30.215472	521.141523	-55.646071	159.951993	862.277564	-143.358743	161.984526	744.460434	-93.698833	124.165886	742.682496	-170.367912	11.834925	111.605814	183.713914	20.762039	107.621602	99.434860	67.733396	329.597820	164.852730	45.377355	217.184803	108.907626	33.960077	213.562507	190.195221	6.114193	99.947419	-174.951273	25.332027	104.868420	-86.454829	61.194484	332.360171	-149.329197	42.163942	214.446477	-104.876190	28.942537	217.291067	-183.467732	-56.123430	53.680852	127.687019	174.710540	62.742165	115.702585	161.900887	56.980831	191.820402	-62.432373	56.980838	-125.383566	174.554253	58.907280	-112.305809	151.710974	51.692010	-197.115037	153.282183	1462.228417	12.784143	108.331766	1498.729028	203.952425	95.957623	1505.784281	-189.211746	15.723110	102.407920	-130.703051	16.298482	109.613708	141.574387	84.230898	966.158289	-73.289583	83.099769	960.119289	94.598161	26.492274	529.437395	-109.506947	29.453773	528.155088	120.342811	
63	0.620000	-42.781347	1070.918760	4.885798	156.451719	1026.432911	129.711629	157.988650	1034.798349	-102.555863	16.709168	533.554156	174.386156	42.207944	522.745976	66.273979	148.097735	867.323388	171.916913	159.291375	744.017378	137.968773	105.588144	743.503774	197.160014	22.753301	537.730501	-163.359197	30.202129	521.138746	-55.637002	159.938442	862.287324	-143.349971	161.977604	744.471451	-93.690305	124.154290	742.689179	-170.354596	11.835444	111.606177	183.716388	20.763176	107.622331	99.436787	67.737375	329.596601	164.857639	45.377249	217.189641	108.909799	33.964445	213.562753	190.199444	6.111824	99.947282	-174.950907	25.333756	104.865726	-86.454551	61.183828	332.359989	-149.325582	42.157044	214.446038	-104.875427	28.935881	217.290849	-183.465502	-56.123702	53.681547	127.687977	174.710397	62.743227	115.703104	161.901816	56.981487	191.820332	-62.432534	56.978448	-125.382659	174.553711	58.907586	-112.306449	151.711292	51.692320	-197.115062	153.320307	1462.232447	12.762542	108.422905	1498.737791	203.951374	95.952354	1505.842934	-189.220016	15.722790	102.406504	-130.702729	16.299310	109.614254	141.576587	84.215104	966.174927	-73.282066	83.104185	960.128251	94.604698	26.477715	529.434624	-109.498100	29.458556	528.150066	120.330067	
64	0.630000	-42.820721	1070.938128	4.908378	156.465491	1026.442260	129.710142	157.969656	1034.819006	-102.555403	16.722479	533.544802	174.355907	42.205121	522.747741	66.280033	148.108885	867.328882	171.916037	159.301307	744.024437	137.967462	105.605630	743.511227	197.166558	22.734672	537.727792	-163.351278	30.187021	521.135935	-55.628998	159.920517	862.299220	-143.342727	161.966520	744.484288	-93.683623	124.137853	742.697664	-170.342880	11.835742	111.606792	183.718972	20.764756	107.623011	99.439116	67.742313	329.595302	164.861555	45.377682	217.195294	108.911604	33.969952	213.563093	190.203641	6.109504	99.947480	-174.950267	25.335724	104.863327	-86.454513	61.171477	332.360344	-149.322924	42.149306	214.446054	-104.875565	28.927971	217.290555	-183.463951	-56.123073	53.682460	127.688918	174.710550	62.744240	115.703571	161.903076	56.982144	191.819911	-62.432951	56.975914	-125.381820	174.553333	58.907804	-112.306690	151.711748	51.692595	-197.115150	153.353054	1462.235858	12.740624	108.514236	1498.752933	203.949200	95.942302	1505.904840	-189.229622	15.722614	102.405403	-130.702390	16.300249	109.614901	141.579044	84.193010	966.195153	-73.274872	83.105774	960.140300	94.610596	26.460847	529.431864	-109.490138	29.463800	528.146271	120.317970	
65	0.640000	-42.872358	1070.962701	4.929978	156.479374	1026.453780	129.706327	157.945523	1034.842315	-102.556922	16.735899	533.537827	174.331297	42.202987	522.750498	66.285154	148.122535	867.337199	171.912766	159.313397	744.033749	137.963155	105.624247	743.519616	197.171533	22.714061	537.725327	-163.344345	30.170941	521.133151	-55.622382	159.897766	862.313551	-143.337660	161.951281	744.499071	-93.679464	124.116611	742.708249	-170.333884	11.835873	111.607689	183.721535	20.766697	107.623675	99.441767	67.748143	329.593904	164.864130	45.378417	217.201003	108.912850	33.976652	213.563444	190.207613	6.107369	99.947924	-174.949286	25.337663	104.861381	-86.454653	61.158186	332.361237	-149.321321	42.141326	214.446574	-104.876315	28.919239	217.290177	-183.463077	-56.121581	53.683595	127.689840	174.711009	62.745169	115.703909	161.904597	56.982815	191.819196	-62.433579	56.973474	-125.381165	174.553046	58.907914	-112.306529	151.712268	51.692802	-197.115298	153.378172	1462.237762	12.718692	108.605221	1498.775653	203.945339	95.926950	1505.969659	-189.240026	15.722516	102.404652	-130.701969	16.301285	109.615682	141.581651	84.163856	966.218811	-73.268180	83.104098	960.155431	94.615761	26.442501	529.429239	-109.483364	29.469443	528.144162	120.308225	
66	0.650000	-42.934395	1070.991638	4.950793	156.492936	1026.467254	129.699847	157.915251	1034.867881	-102.560881	16.749088	533.533767	174.314955	42.201720	522.754154	66.289356	148.138628	867.348402	171.907047	159.327550	744.045400	137.955692	105.643437	743.528571	197.174544	22.692232	537.723227	-163.338635	30.154584	521.130478	-55.617381	159.869704	862.330488	-143.335457	161.932044	744.515809	-93.678516	124.090744	742.721091	-170.328723	11.835918	111.608859	183.723969	20.768883	107.624356	99.444620	67.754813	329.592442	164.865061	45.379173	217.206032	108.913404	33.984580	213.563723	190.211160	6.105509	99.948475	-174.947962	25.339323	104.859981	-86.454897	61.144619	332.362617	-149.320837	42.133627	214.447600	-104.877365	28.910071	217.289685	-183.462825	-56.119398	53.684925	127.690681	174.711739	62.745991	115.704054	161.906255	56.983517	191.818266	-62.434351	56.971327	-125.380776	174.552764	58.907922	-112.306033	151.712776	51.692917	-197.115488	153.393491	1462.237228	12.697207	108.694936	1498.806659	203.939502	95.906126	1506.036772	-189.250358	15.722416	102.404228	-130.701430	16.302400	109.616607	141.584295	84.127333	966.245366	-73.262199	83.099258	960.173240	94.620067	26.423408	529.426853	-109.478008	29.475404	528.143961	120.302155	
67	0.660000	-43.003260	1071.023291	4.971249	156.505851	1026.482218	129.690279	157.877890	1034.895093	-102.567803	16.761831	533.532790	174.308395	42.201257	522.758451	66.292665	148.156990	867.362197	171.898656	159.343681	744.059308	137.944847	105.662834	743.537656	197.175168	22.669680	537.721536	-163.334317	30.138408	521.128019	-55.614116	159.835805	862.350008	-143.336849	161.909061	744.534351	-93.681486	124.060457	742.736147	-170.328427	11.835962	111.610250	183.726198	20.771164	107.625087	99.447521	67.762286	329.591012	164.864132	45.379632	217.209766	108.913201	33.993721	213.563859	190.214105	6.103963	99.948973	-174.946365	25.340492	104.859158	-86.455164	61.131216	332.364407	-149.321524	42.126576	214.449091	-104.878454	28.900730	217.289037	-183.463105	-56.116801	53.686390	127.691326	174.712661	62.746686	115.703952	161.907889	56.984281	191.817221	-62.435186	56.969615	-125.380693	174.552406	58.907870	-112.305326	151.713210	51.692929	-197.115693	153.397241	1462.233407	12.676722	108.782156	1498.846060	203.931697	95.879946	1506.105258	-189.259571	15.722228	102.404065	-130.700765	16.303563	109.617669	141.586859	84.083677	966.273904	-73.257196	83.091941	960.192920	94.623315	26.404044	529.424777	-109.474217	29.481544	528.145620	120.300530	
68	0.670000	-43.073937	1071.055377	4.991941	156.517923	1026.497985	129.677124	157.832675	1034.923137	-102.578269	16.773997	533.534692	174.311916	42.201263	522.763005	66.295077	148.177351	867.377934	171.887171	159.361700	744.075189	137.930279	105.682326	743.546403	197.172950	22.646503	537.720223	-163.331498	30.122515	521.125875	-55.612602	159.795518	862.371845	-143.342605	161.882603	744.554368	-93.689086	124.025858	742.753143	-170.333861	11.836083	111.611767	183.728181	20.773362	107.625904	99.450297	67.770514	329.589772	164.861254	45.379450	217.211782	108.912241	34.003981	213.563802	190.216313	6.102719	99.949258	-174.944616	25.341027	104.858885	-86.455378	61.118095	332.366521	-149.323424	42.120325	214.450972	-104.879425	28.891307	217.288195	-183.463808	-56.114122	53.687904	127.691634	174.713653	62.747237	115.703564	161.909342	56.985149	191.816161	-62.436002	56.968399	-125.380919	174.551910	58.907826	-112.304566	151.713525	51.692847	-197.115886	153.388387	1462.225669	12.657815	108.865480	1498.893310	203.922226	95.848724	1506.173900	-189.266630	15.721873	102.404072	-130.699997	16.304722	109.618835	141.589239	84.033668	966.303195	-73.253525	83.083339	960.213331	94.625205	26.384509	529.423049	-109.472050	29.487630	528.148848	120.303496	
